{"title":"Michael Jackson - Beat It   By Haunting Summer","uid":6324740,"size":62719000,"categoryP":"video","categoryS":"music_videos","magnet":"?xt=urn:btih:c737cf35babafff5542c73fd908c9e91a7e32155&amp;dn=Michael+Jackson+-+Beat+It+++By+Haunting+Summer&amp;tr=udp%3A%2F%2Ftracker.openbittorrent.com%3A80&amp;tr=udp%3A%2F%2Fopen.demonii.com%3A1337&amp;tr=udp%3A%2F%2Ftracker.coppersurfer.tk%3A6969&amp;tr=udp%3A%2F%2Fexodus.desync.com%3A6969","seeders":0,"leechers":1,"uploader":"HaUnTiNg.SuMMeR","files":-1,"time":1303069976,"description":"======================= MICHAEL JACKSON BEAT IT ==============================\n\nFormat                           : AVI\nFormat/Info                      : Audio Video Interleave\nFile size                        : 59.8 MiB\nDuration                         : 5mn 1s\nOverall bit rate                 : 1 667 Kbps\nWriting application              : FairUse Wizard - http://fairusewizard.com\nWriting library                  : VirtualDub build 24463/release\n\nVideo\nID                               : 0\nFormat                           : AVC\nFormat/Info                      : Advanced Video Codec\nFormat profile                   : &lt;a class=&quot;__cf_email__&quot; href=&quot;/cdn-cgi/l/email-protection&quot; data-cfemail=&quot;094468606749453c2738&quot;&gt;[email&amp;#160;protected]&lt;/a&gt;&lt;script cf-hash='f9e31' type=&quot;text/javascript&quot;&gt;\n/* &lt;![CDATA[ */!function(){try{var t=&quot;currentScript&quot;in document?document.currentScript:function(){for(var t=document.getElementsByTagName(&quot;script&quot;),e=t.length;e--;)if(t[e].getAttribute(&quot;cf-hash&quot;))return t[e]}();if(t&amp;&amp;t.previousSibling){var e,r,n,i,c=t.previousSibling,a=c.getAttribute(&quot;data-cfemail&quot;);if(a){for(e=&quot;&quot;,r=parseInt(a.substr(0,2),16),n=2;a.length-n;n+=2)i=parseInt(a.substr(n,2),16)^r,e+=String.fromCharCode(i);e=document.createTextNode(e),c.parentNode.replaceChild(e,c)}}}catch(u){}}();/* ]]&gt; */&lt;/script&gt;\nFormat settings, CABAC           : Yes\nFormat settings, ReFrames        : 2 frames\nCodec ID                         : H264\nDuration                         : 5mn 1s\nBit rate                         : 1 212 Kbps\nWidth                            : 624 pixels\nHeight                           : 464 pixels\nDisplay aspect ratio             : 4:3\nFrame rate                       : 23.976 fps\nColor space                      : YUV\nChroma subsampling               : 4:2:0\nBit depth                        : 8 bits\nScan type                        : Progressive\nBits/(Pixel*Frame)               : 0.175\nStream size                      : 43.6 MiB (73%)\nWriting library                  : x264 core 53\n\nAudio\nID                               : 1\nFormat                           : AC-3\nFormat/Info                      : Audio Coding 3\nMode extension                   : CM (complete main)\nCodec ID                         : 2000\nDuration                         : 5mn 1s\nBit rate mode                    : Constant\nBit rate                         : 448 Kbps\nChannel(s)                       : 6 channels\nChannel positions                : Front: L C R, Side: L R, LFE\nSampling rate                    : 48.0 KHz\nVideo delay                      : 430ms\nStream size                      : 16.1 MiB (27%)\nAlignment                        : Split accross interleaves\nInterleave, duration             : 2641 ms (63.32 video frames)\nInterleave, preload duration     : 128 ms\n\n=============================================================================\n \n                           &lt;a href=&quot; http://bayimg.com/jAhbCAAdk&quot; rel=&quot;nofollow&quot; target=&quot;_NEW&quot;&gt; http://bayimg.com/jAhbCAAdk&lt;/a&gt;\n\n=============================================================================\n\n========================== HAUNTING SUMMER ==================================\n                        ","torrent":{"xt":"urn:btih:c737cf35babafff5542c73fd908c9e91a7e32155","amp;dn":"Michael+Jackson+-+Beat+It+++By+Haunting+Summer","amp;tr":["udp%3A%2F%2Ftracker.openbittorrent.com%3A80","udp%3A%2F%2Fopen.demonii.com%3A1337","udp%3A%2F%2Ftracker.coppersurfer.tk%3A6969","udp%3A%2F%2Fexodus.desync.com%3A6969"],"infoHash":"c737cf35babafff5542c73fd908c9e91a7e32155","infoHashBuffer":{"type":"Buffer","data":[199,55,207,53,186,186,255,245,84,44,115,253,144,140,158,145,167,227,33,85]},"announce":[],"urlList":[]}}